# xmcd
# 
# Track frame offsets:
#     150
#     17317
#     34341
#     80327
#     97424
# 
# Disc length: 1523
# 
# Revision: 2
# Processed by: cddbd v1.5.2PL0 Copyright (c) Steve Scherf et al.
# Submitted via: BonkEnc v1.0.8
# 
DISCID=3405f105
DTITLE=ドイツ（安元洋貴） - HETALIA Character CD Vol.2 Germany
DYEAR=2009
DGENRE=Anime
TTITLE0=ゲルマン讃歌～俺はドイツ製～
TTITLE1=Einsamkeit
TTITLE2=ミニドラマ「ポスター作ったよ！」
TTITLE3=ゲルマン讃歌～俺はドイツ製～（俺は留守にしている！ver.)
TTITLE4=Einsamkeit(俺は留守にしている！ver.)
EXTD=YEAR: 2009
EXTT0=
EXTT1=
EXTT2=
EXTT3=
EXTT4=
PLAYORDER=
